:SAMPLES-PER-SECOND 30
:FULLY-SPECIFIED
:DEGREES
229
root  -30.3338 38.5314 6.78464 112.688 81.8029 119.593
RightUpLeg  -1.5445 1.636 -9.91614
RightLeg  63.1016 8.06065 16.2712
RightFoot  6.06951 -2.13784 14.0549
RightToes  -1.33073e-015 0 -3.6325e-017
Spine  4.25745 1.5595 -6.06727
Spine1  13.7382 1.1268 -2.71531
HEad  -12.6291 -2.41286 1.29142
LeftShoulder1  -0.201481 4.08412 -28.5566
LeftArm  -11.0522 8.12373 -32.3649
LeftForeArm  71.2062 -78.9607 -92.2695
LeftHand  0.0224822 3.83074 -1.91257
RightShoulder  -0.27267 -4.32785 25.7943
RightArm  -13.574 -13.4999 39.2891
RightForeArm  114.71 73.3418 138.674
RightHand  -0.061838 -2.65656 -2.05438
LeftUpLeg  -10.3649 3.23211 -9.88894
LeftLeg  24.6946 6.43827 3.57318
LeftFoot  -6.27513 -0.252682 6.55725
LeftToes  -1.03319e-009 7.52634e-011 -3.26162e-012
230
root  -29.2652 38.7589 6.56651 114.857 82.6224 122.09
RightUpLeg  -6.40552 1.49181 -9.22801
RightLeg  66.0584 5.05484 11.7689
RightFoot  2.6177 -1.42372 11.7761
RightToes  -1.33073e-015 0 -3.6325e-017
Spine  5.00471 1.21762 -5.88143
Spine1  13.2187 0.590752 -2.27
HEad  -12.5392 -1.84738 1.76542
LeftShoulder1  -0.193371 4.06199 -28.4692
LeftArm  -11.1016 7.79344 -32.7438
LeftForeArm  68.8852 -78.9741 -89.8431
LeftHand  0.0307135 3.50279 -2.35052
RightShoulder  -0.296573 -4.4054 25.6575
RightArm  -13.6954 -13.3392 39.4846
RightForeArm  115.041 73.4048 138.56
RightHand  -0.0721471 -2.4468 -2.37243
LeftUpLeg  -7.5682 3.54094 -9.01543
LeftLeg  23.6357 6.36363 3.32958
LeftFoot  -7.78168 -0.148035 6.27825
LeftToes  -1.03319e-009 7.52634e-011 -3.26162e-012
231
root  -28.1724 38.9674 6.37868 116.632 83.3049 124.069
RightUpLeg  -10.8496 1.59348 -8.4355
RightLeg  65.8663 3.3387 7.57188
RightFoot  1.7348 -1.08483 9.55043
RightToes  -1.33073e-015 0 -3.6325e-017
Spine  5.17195 0.963563 -6.14354
Spine1  13.2656 0.0841737 -1.52605
HEad  -12.6089 -1.3084 1.47968
LeftShoulder1  -0.231856 4.16866 -28.7156
LeftArm  -11.1713 7.54162 -33.0421
LeftForeArm  69.0091 -78.9842 -89.709
LeftHand  0.0289521 3.69378 -1.97486
RightShoulder  -0.234454 -4.22262 25.1787
RightArm  -14.3694 -13.9844 40.0782
RightForeArm  115.736 73.2472 139.089
RightHand  -0.0573741 -2.68848 -1.98118
LeftUpLeg  -4.67713 4.17664 -8.15707
LeftLeg  22.1491 5.99002 2.83776
LeftFoot  -8.98155 -0.0756552 6.29555
LeftToes  -1.03319e-009 7.52634e-011 -3.26162e-012
232
root  -27.0532 39.1906 6.17747 122.499 83.8715 130.18
RightUpLeg  -14.1385 1.61712 -7.38809
RightLeg  62.1698 2.67213 4.98016
RightFoot  1.05264 -0.700049 6.50749
RightToes  -1.33073e-015 0 -3.6325e-017
Spine  5.63355 0.517417 -5.73416
Spine1  12.7193 -0.35926 -1.23964
HEad  -12.5841 -1.56711 1.90102
LeftShoulder1  -0.203709 4.09096 -28.5399
LeftArm  -11.3267 7.6174 -33.5428
LeftForeArm  70.7869 -79.0133 -90.7843
LeftHand  0.0335837 3.56758 -2.23678
RightShoulder  -0.262514 -4.30379 25.4885
RightArm  -14.8151 -14.7441 39.7369
RightForeArm  117.682 72.8564 140.388
RightHand  -0.0363319 -1.76457 -0.850756
LeftUpLeg  -1.42387 5.06931 -7.00448
LeftLeg  20.0547 4.91929 1.98202
LeftFoot  -9.86906 -0.0227847 6.38877
LeftToes  -1.03319e-009 7.52634e-011 -3.26162e-012
233
root  -25.9488 39.3423 5.97391 130.774 84.1211 138.601
RightUpLeg  -16.1835 1.27041 -6.55042
RightLeg  55.2247 2.80362 3.91166
RightFoot  -0.211596 -0.543025 5.55859
RightToes  -1.33073e-015 0 -3.6325e-017
Spine  5.98015 0.0150707 -5.27844
Spine1  12.3588 -0.875225 -0.768893
HEad  -12.5166 -1.25743 1.99648
LeftShoulder1  -0.176813 4.01183 -28.6483
LeftArm  -11.3511 7.19329 -33.79
LeftForeArm  70.4914 -79.0143 -90.4733
LeftHand  0.0316772 3.7059 -1.71669
RightShoulder  -0.224287 -4.19265 25.065
RightArm  -15.2433 -15.3073 39.9295
RightForeArm  118.666 72.3621 141.719
RightHand  -0.058019 -2.22607 -1.70359
LeftUpLeg  1.60624 5.77417 -5.89771
LeftLeg  18.1405 3.76035 1.22358
LeftFoot  -10.8433 0.036888 6.65042
LeftToes  -1.03319e-009 7.52634e-011 -3.26162e-012
234
root  -24.8144 39.3693 5.78247 136.62 84.0204 144.591
RightUpLeg  -17.0404 0.796077 -6.12545
RightLeg  45.7349 3.54984 3.58193
RightFoot  -1.36378 -0.490648 5.5188
RightToes  -1.33073e-015 0 -3.6325e-017
Spine  6.4215 -0.492939 -5.3238
Spine1  11.8522 -1.45385 -0.268364
HEad  -12.3873 -0.853465 2.07524
LeftShoulder1  -0.212057 4.11422 -28.5778
LeftArm  -11.3544 7.0615 -34.0423
LeftForeArm  71.5853 -78.9987 -91.8319
LeftHand  0.0295674 3.99629 -1.68581
RightShoulder  -0.198608 -4.11617 24.802
RightArm  -15.5027 -15.7157 39.9522
RightForeArm  119.2 72.0218 142.561
RightHand  -0.058368 -2.61265 -1.9704
LeftUpLeg  4.35615 6.56259 -5.08733
LeftLeg  16.9073 2.62409 0.554215
LeftFoot  -12.0915 0.118502 7.03961
LeftToes  -1.03319e-009 7.52634e-011 -3.26162e-012
